inDegrees=no
nColumns=24
nRows=9
DataType=double
version=3
OpenSimVersion=4.5
endheader
time	pelvis_tilt	pelvis_list	pelvis_rotation	pelvis_tz	pelvis_ty	pelvis_tx	hip_flexion_r	hip_adduction_r	hip_rotation_r	knee_angle_r	ankle_angle_r	subtalar_angle_r	mtp_angle_r	hip_flexion_l	hip_adduction_l	hip_rotation_l	knee_angle_l	ankle_angle_l	subtalar_angle_l	mtp_angle_l	lumbar_extension	lumbar_bending	lumbar_rotation
0.3	-0.01150734616030254	0.03859708109575646	-0.004947350225231063	-0.01601655000000002	1.02379197	0.37164261	0.3487373150309911	-0.1115860936762401	-0.1055160759025821	-1.079149470265645	0.02737380507480288	-0.1535753333801991	0	0.1291580921472639	0.07762181451749908	-0.237114474320015	-0.2374416952804301	0.1307705147512518	-0.009576886546673338	0	-0.1740856102275833	-0.05211582764692475	0.02759449270847253
0.3099999999999998	-0.01024435645205083	0.03593164604882049	-7.935872787213321e-05	-0.01692065000000001	1.02461035	0.38282588	0.3632008754719619	-0.1094180512644663	-0.1071928295974692	-1.051329548038458	0.04014994262316905	-0.1537980188922635	0	0.1086919415866932	0.07652421971148653	-0.2362371266265689	-0.2251434390041696	0.1372269662236597	0.0004916479056466647	0	-0.1755773204499825	-0.0470313679803365	0.02168004084343376
0.3199999999999998	-0.008131411043378401	0.03266665034039724	0.006300728395353688	-0.01780601000000001	1.02532278	0.39418257	0.3748804313779463	-0.1065034112784291	-0.1093126616519797	-1.019215157840139	0.05179689787312129	-0.1504844488245651	0	0.08751741947860346	0.07443544264942258	-0.23546676761627	-0.2130764718405213	0.1518525466262906	0.01180115945268907	0	-0.1773270067419216	-0.04157583037082324	0.01511146802361432
0.3299999999999998	-0.009416556982975168	0.03194777769577604	0.01094769970660455	-0.01847425999999999	1.02543756	0.40516942	0.390351827832158	-0.1057706133244295	-0.1102416812141945	-0.9836858339126201	0.05800987835833695	-0.1481326124215149	0	0.07182793156798441	0.07426252659724218	-0.2389448510229981	-0.2040551312742064	0.1579467635645604	0.01763504046173755	0	-0.1764524959066416	-0.03871764009238209	0.007396415296230287
0.3399999999999999	-0.001493247439948296	0.02801251671886504	0.01708475383854562	-0.01937211	1.02624202	0.4162886100000001	0.3917319158713119	-0.1028222642237522	-0.1157245813975889	-0.9411352635090298	0.07283397146289218	-0.1359057483147085	0	0.0457852960949946	0.07007472093268685	-0.2425712690901885	-0.1951345611319798	0.1664325428685838	0.0417715898158525	0	-0.1862049620524668	-0.0321061925613557	0.001894847071156629
0.3499999999999999	-0.004456138675092186	0.02863770947343642	0.02175550015258973	-0.02000030999999999	1.02577494	0.4271979	0.4064507813299351	-0.1032458591238697	-0.1163301523540339	-0.8983721849573091	0.07651120461672148	-0.1338812241527934	0	0.03216635667866583	0.07151625032109742	-0.2405408047001641	-0.1865614909307472	0.1742602476980049	0.04649461361096837	0	-0.1832257867720079	-0.03153155948576446	-0.002656466868824906
0.3599999999999999	-0.005514846996785602	0.02874093669650464	0.02641214383879796	-0.02062158	1.02530329	0.43811965	0.4171727728137883	-0.1033997821540641	-0.118467760586976	-0.8512426549474517	0.07990281219500095	-0.1292395560882324	0	0.0160692748719786	0.07235483111026407	-0.2380052045000337	-0.1775026437624058	0.1829603604154902	0.0521510976095149	0	-0.182740096198697	-0.02978040310299649	-0.007259819894849754
0.3699999999999999	-0.004990946386604355	0.02741478045323668	0.031243855715033	-0.02139452	1.02469585	0.44907586	0.4235384720520144	-0.1026850504522177	-0.1230260816748384	-0.7992136862287462	0.08315531947535743	-0.1235834892233771	0	-0.001618167529753751	0.07156253750005785	-0.23485773637005	-0.1690014462197703	0.1842120794881598	0.05814590652771059	0	-0.1840883066717279	-0.02659010476770177	-0.01121778838619772
0.3799999999999999	0.00299819339987818	0.02609346178945089	0.03928226441103268	-0.02218407	1.02485495	0.4600973	0.4182988534875886	-0.1025315911560056	-0.1314429995368231	-0.7407997905030441	0.08318422980721916	-0.1176799500294864	0	-0.02556002016982098	0.06943147652073875	-0.2320470954926843	-0.1634974347082768	0.1855044989408543	0.0657243479712179	0	-0.1951588180669899	-0.02259644673661148	-0.01580740602007522
